<?xml version="1.0" encoding="utf-8"?>
<!-- Generator: Adobe Illustrator 18.0.0, SVG Export Plug-In . SVG Version: 6.00 Build 0)  -->
<!DOCTYPE svg PUBLIC "-//W3C//DTD SVG 1.1//EN" "http://www.w3.org/Graphics/SVG/1.1/DTD/svg11.dtd">
<svg version="1.1" xmlns="http://www.w3.org/2000/svg" xmlns:xlink="http://www.w3.org/1999/xlink" x="0px" y="0px"
	 viewBox="0 0 768 1024" enable-background="new 0 0 768 1024" xml:space="preserve">
	 
		<style>
			#Sombra_Ponteiro, #Ponteiro {
          transform-origin: 50% 50%;
          transform:rotate(0deg);
          animation: swing-pointer 2s alternate infinite;
      }

      @keyframes swing-pointer {
          0% {
              transform: rotate(20deg);
          }
          100% {
              transform: rotate(-20deg);
          }
      }
		</style>

<g id="all">
	<g id="Bussola">
		<g>
			<circle fill="#C6C6C6" cx="383.5" cy="607.7" r="319.3"/>
			<path fill="#009BDB" d="M384,79.7c-43,0-77.9,34.9-77.9,77.9s34.9,77.9,77.9,77.9s77.9-34.9,77.9-77.9S427,79.7,384,79.7z
				 M382.9,214.4c-31.3,0-56.7-25.4-56.7-56.7s25.4-56.7,56.7-56.7s56.7,25.4,56.7,56.7S414.2,214.4,382.9,214.4z"/>
			<path fill="#009BDB" d="M386.9,241.8c-200.1,0-362.4,162.2-362.4,362.4s162.2,362.4,362.4,362.4s362.4-162.2,362.4-362.4
				S587.1,241.8,386.9,241.8z"/>
			<path fill="#C6C6C6" d="M685.9,568.1c-2.5-21.2-7.3-41.7-14-61.3l0.5-0.5c-14.5-41.8-38-79.3-68.2-110.4c-0.6-0.7-1.3-1.3-1.9-2
				c-0.6-0.6-1.1-1.2-1.7-1.7c-23.9-24.1-51.9-44.2-82.8-59.1l0,0c-1-0.5-2-1-3-1.4c-0.3-0.2-0.7-0.3-1-0.5c-1.5-0.7-3-1.4-4.6-2.1
				c-0.4-0.2-0.7-0.3-1.1-0.5c-1.5-0.7-3.1-1.3-4.6-2c-0.4-0.2-0.8-0.3-1.1-0.5c-1.5-0.6-3.1-1.3-4.7-1.9c-0.4-0.1-0.7-0.3-1.1-0.4
				c-1.6-0.6-3.2-1.2-4.8-1.8c-0.3-0.1-0.7-0.3-1-0.4c-1.7-0.6-3.3-1.2-5-1.8c-0.3-0.1-0.6-0.2-0.8-0.3c-1.8-0.6-3.5-1.2-5.3-1.8
				c-0.2-0.1-0.4-0.1-0.6-0.2c-1.9-0.6-3.8-1.2-5.7-1.8c-0.1,0-0.2-0.1-0.3-0.1c-16.1-4.8-32.8-8.3-50-10.4l0,0c0,0,0,0,0,0
				L387,359.6l-36.1-54.3c0,0,0,0,0,0l0,0C213.4,321.7,104.5,430.7,88,568.1l54.4,36.1L88,640.3c8.3,69.1,39.9,131,86.9,177.6
				c0.6,0.6,1.1,1.1,1.7,1.7c0.7,0.6,1.3,1.3,2,1.9c31.1,30.1,68.7,53.6,110.4,68.2l0.5-0.5c19.6,6.7,40.1,11.4,61.3,14l36.1-54.4
				l36.1,54.4c137.4-16.4,246.4-125.4,262.8-262.8l-54.3-36.1L685.9,568.1z"/>
			<path fill="#010002" d="M352.8,245.4c19.5-0.8,41.7-0.9,63,0v-56.6h-63V245.4z"/>
			<path fill="#A8A8A8" d="M423.1,305.3c164.6,20.9,253.4,156.9,262.7,262.8l-20.8,14.2c2.2-132.5-116.6-237.7-241.2-261.4L387,359.6
				"/>
			<path fill="#A8A8A8" d="M584,831.9c49-41.4,90.6-104.6,101.9-191.5l-54.3-36.1l30.8,34.1C654.9,704.3,626.1,768.6,584,831.9z"/>
			<path fill="#A8A8A8" d="M124.8,456.2c74.3-86.8,157.8-127.2,236.7-134.9l-10.5-15.9C243.5,317,162.5,388.5,124.8,456.2z"/>
		</g>
	</g>
	<g id="Sombra_Ponteiro">
		<path fill="#A8A8A8" d="M445.1,639.8c8.2-27-0.3-57.4-23.7-76c-0.5-0.4-1-0.8-1.5-1.2l0,0l0,0c-0.1-0.1-0.2-0.2-0.3-0.2
			c-0.1-0.1-0.3-0.2-0.5-0.4c-6.4-4.8-13.5-8.3-20.7-10.6c-15.1-5.2-36.4-7.6-58.3,6.2l-135.5-76.9l104.4,117.6
			c-0.1,0.3-0.2,0.6-0.2,0.8c-5.8,18.7-2.9,34.7,2.5,47c4.3,10.4,11.1,19.9,20.3,27.6l0,0c0.5,0.4,1,0.8,1.5,1.2
			c23.5,18.7,55.3,20.1,79.8,5.8l135.7,73.8L445.1,639.8z"/>
	</g>
	<g id="Ponteiro">
		<g>
			<path fill="#F1CF00" d="M426.7,552.5c-9.4-7.2-20.1-11.7-31-13.5c-9.4-1.9-17.8-1.4-24.8,0.2c-8.1,1.5-15.9,4.4-23.1,8.7
				l-135.6-77l104,117.1c-8.1,26.5,0,56.4,22.5,75.1L426.7,552.5z"/>
			<path fill="#C23334" d="M451.9,629.4c8.1-26.9-0.3-57.2-23.6-75.7c-0.5-0.4-1-0.8-1.5-1.2c0,0-51.1-40.7-97.8,10.6
				c-41.3,59.3,9.9,99.9,9.9,99.9c0.5,0.4,1,0.8,1.5,1.2c23.4,18.7,55.1,20,79.5,5.8l135.1,73.5L451.9,629.4z"/>
		</g>
	</g>
</g>
<g id="Ponto_Central">
	<circle fill="#010002" cx="384.7" cy="606.5" r="37.3"/>
</g>
</svg>
