<?xml version="1.0" encoding="UTF-8"?>
<svg width="726px" height="888px" viewBox="0 0 726 888" version="1.1" xmlns="http://www.w3.org/2000/svg" xmlns:xlink="http://www.w3.org/1999/xlink">
    
    <style>
        #pointer-2 {
            transform: rotate(0deg);
            transform-origin: 172.3px 136.3px;
            animation: swing-pointer 2s alternate infinite;
        }

        @keyframes swing-pointer {
            0% {
                transform: rotate(20deg);
            }
            100% {
                transform: rotate(-30deg);
            }
        }
    </style>
    <title>logo-2</title>
    <desc>Created with Sketch.</desc>
    <defs>
        <circle id="path-1" cx="361.8" cy="525.8" r="31.8"></circle>
        <filter x="-3.1%" y="-3.1%" width="106.3%" height="106.3%" filterUnits="objectBoundingBox" id="filter-2">
            <feOffset dx="4" dy="-3" in="SourceAlpha" result="shadowOffsetInner1"></feOffset>
            <feComposite in="shadowOffsetInner1" in2="SourceAlpha" operator="arithmetic" k2="-1" k3="1" result="shadowInnerInner1"></feComposite>
            <feColorMatrix values="0 0 0 0 0   0 0 0 0 0   0 0 0 0 0  0 0 0 0.5 0" type="matrix" in="shadowInnerInner1"></feColorMatrix>
        </filter>
    </defs>
    <g id="Page-1" stroke="none" stroke-width="1" fill="none" fill-rule="evenodd">
        <g id="logo">
            <g id="body" transform="translate(0.000000, 162.000000)">
                <circle id="Oval" fill="#C6C6C6" cx="359.5" cy="366.7" r="319.3"></circle>
                <path d="M362.9,0.8 C162.8,0.8 0.5,163 0.5,363.2 C0.5,563.4 162.7,725.6 362.9,725.6 C563.1,725.6 725.3,563.4 725.3,363.2 C725.3,163 563.1,0.8 362.9,0.8 Z" id="Path" fill="#009BDB"></path>
                <path d="M661.9,327.1 C659.4,305.9 654.6,285.4 647.9,265.8 L648.4,265.3 C633.9,223.5 610.4,186 580.2,154.9 C579.6,154.2 578.9,153.6 578.3,152.9 C577.7,152.3 577.2,151.7 576.6,151.2 C552.7,127.1 524.7,107 493.8,92.1 C492.8,91.6 491.8,91.1 490.8,90.7 C490.5,90.5 490.1,90.4 489.8,90.2 C488.3,89.5 486.8,88.8 485.2,88.1 C484.8,87.9 484.5,87.8 484.1,87.6 C482.6,86.9 481,86.3 479.5,85.6 C479.1,85.4 478.7,85.3 478.4,85.1 C476.9,84.5 475.3,83.8 473.7,83.2 C473.3,83.1 473,82.9 472.6,82.8 C471,82.2 469.4,81.6 467.8,81 C467.5,80.9 467.1,80.7 466.8,80.6 C465.1,80 463.5,79.4 461.8,78.8 C461.5,78.7 461.2,78.6 461,78.5 C459.2,77.9 457.5,77.3 455.7,76.7 C455.5,76.6 455.3,76.6 455.1,76.5 C453.2,75.9 451.3,75.3 449.4,74.7 C449.3,74.7 449.2,74.6 449.1,74.6 C433,69.8 416.3,66.3 399.1,64.2 C399.1,64.2 399.1,64.2 399.1,64.2 L363,118.6 L326.9,64.3 C326.9,64.3 326.9,64.3 326.9,64.3 C189.4,80.7 80.5,189.7 64,327.1 L118.4,363.2 L64,399.3 C72.3,468.4 103.9,530.3 150.9,576.9 C151.5,577.5 152,578 152.6,578.6 C153.3,579.2 153.9,579.9 154.6,580.5 C185.7,610.6 223.3,634.1 265,648.7 L265.5,648.2 C285.1,654.9 305.6,659.6 326.8,662.2 L362.9,607.8 L399,662.2 C536.4,645.8 645.4,536.8 661.8,399.4 L607.5,363.3 L661.9,327.1 Z" id="Path" fill="#C6C6C6"></path>
                <g id="body-shadow" transform="translate(100.000000, 64.000000)">
                    <path d="M299.1,0.3 C463.7,21.2 552.5,157.2 561.8,263.1 L541,277.3 C543.2,144.8 424.4,39.6 299.8,15.9 L263,54.6" id="Path" fill="#A8A8A8"></path>
                    <path d="M460,526.9 C509,485.5 550.6,422.3 561.9,335.4 L507.6,299.3 L538.4,333.4 C530.9,399.3 502.1,463.6 460,526.9 Z" id="Path" fill="#A8A8A8"></path>
                    <path d="M0.8,151.2 C75.1,64.4 158.6,24 237.5,16.3 L227,0.4 C119.5,12 38.5,83.5 0.8,151.2 Z" id="Path" fill="#A8A8A8"></path>
                    <path d="" id="Path-2" stroke="#979797"></path>
                </g>
            </g>
            <g id="pointer-3" transform="translate(191.000000, 389.000000)">
                <g id="pointer-2">
                    <g id="pointer" transform="translate(172.500000, 145.000000) scale(1, -1) translate(-172.500000, -145.000000) ">
                        <g id="pointer-shadow" fill="#A8A8A8">
                            <path d="M241.1,159.8 C249.3,132.8 240.8,102.4 217.4,83.8 C216.9,83.4 216.4,83 215.9,82.6 C215.8,82.5 215.7,82.4 215.6,82.4 C215.5,82.3 215.3,82.2 215.1,82 C208.7,77.2 201.6,73.7 194.4,71.4 C179.3,66.2 158,63.8 136.1,77.6 L0.6,0.7 L105,118.3 C104.9,118.6 104.8,118.9 104.8,119.1 C99,137.8 101.9,153.8 107.3,166.1 C111.6,176.5 118.4,186 127.6,193.7 C128.1,194.1 128.6,194.5 129.1,194.9 C152.6,213.6 184.4,215 208.9,200.7 L344.6,274.5 L241.1,159.8 Z" id="Path"></path>
                        </g>
                        <path d="M214.5,97.6 C205.1,90.4 194.4,85.9 183.5,84.1 C174.1,82.2 165.7,82.7 158.7,84.3 C150.6,85.8 142.8,88.7 135.6,93 L0,16 L104,133.1 C95.9,159.6 104,189.5 126.5,208.2 L214.5,97.6 Z" id="yellow" fill="#F1CF00"></path>
                        <path d="M239.998982,175.214449 C248.098982,148.314449 239.698982,118.014449 216.398982,99.5144489 C215.898982,99.1144489 215.398982,98.7144489 214.898982,98.3144489 C214.898982,98.3144489 163.798982,57.6144489 117.098982,108.914449 C75.7989817,168.214449 126.998982,208.814449 126.998982,208.814449 C127.498982,209.214449 127.998982,209.614449 128.498982,210.014449 C151.898982,228.714449 183.598982,230.014449 207.998982,215.814449 L343.098982,289.314449 L239.998982,175.214449 Z" id="red" fill="#C23334"></path>
                    </g>
                </g>
            </g>
            <g id="point">
                <use fill="#8F8F8F" fill-rule="evenodd" xlink:href="#path-1"></use>
                <use fill="black" fill-opacity="1" filter="url(#filter-2)" xlink:href="#path-1"></use>
            </g>
            <g id="ring" transform="translate(282.000000, 0.000000)" fill="#009BDB" fill-rule="nonzero">
                <path d="M78,0.7 C35,0.7 0.1,35.6 0.1,78.6 C0.1,121.6 35,156.5 78,156.5 C121,156.5 155.9,121.6 155.9,78.6 C155.9,35.6 121,0.7 78,0.7 Z M76.9,135.4 C45.6,135.4 20.2,110 20.2,78.7 C20.2,47.4 45.6,22 76.9,22 C108.2,22 133.6,47.4 133.6,78.7 C133.6,110 108.2,135.4 76.9,135.4 Z" id="ring-big"></path>
            </g>
        </g>
    </g>
</svg>