<?xml version="1.0" encoding="UTF-8"?>
<svg width="715px" height="192px" viewBox="0 0 715 192" version="1.1" xmlns="http://www.w3.org/2000/svg" xmlns:xlink="http://www.w3.org/1999/xlink">
    <!-- Generator: Sketch 52.2 (67145) - http://www.bohemiancoding.com/sketch -->
    <title>Diagrama Tarefas - 1</title>
    <desc>Created with Sketch.</desc>
    <defs>
        <linearGradient x1="100%" y1="50%" x2="0%" y2="50%" id="linearGradient-1">
            <stop stop-color="#810808" offset="0%"></stop>
            <stop stop-color="#CE5555" offset="100%"></stop>
        </linearGradient>
        <filter x="-42.9%" y="-13.4%" width="185.7%" height="126.8%" filterUnits="objectBoundingBox" id="filter-2">
            <feOffset dx="0" dy="2" in="SourceAlpha" result="shadowOffsetOuter1"></feOffset>
            <feGaussianBlur stdDeviation="2" in="shadowOffsetOuter1" result="shadowBlurOuter1"></feGaussianBlur>
            <feColorMatrix values="0 0 0 0 0   0 0 0 0 0   0 0 0 0 0  0 0 0 0.5 0" type="matrix" in="shadowBlurOuter1" result="shadowMatrixOuter1"></feColorMatrix>
            <feMerge>
                <feMergeNode in="shadowMatrixOuter1"></feMergeNode>
                <feMergeNode in="SourceGraphic"></feMergeNode>
            </feMerge>
        </filter>
        <linearGradient x1="100%" y1="50%" x2="0%" y2="50%" id="linearGradient-3">
            <stop stop-color="#313AC5" offset="0%"></stop>
            <stop stop-color="#785BD2" offset="100%"></stop>
        </linearGradient>
        <filter x="-24.0%" y="-31.5%" width="148.0%" height="163.0%" filterUnits="objectBoundingBox" id="filter-4">
            <feOffset dx="0" dy="2" in="SourceAlpha" result="shadowOffsetOuter1"></feOffset>
            <feGaussianBlur stdDeviation="2" in="shadowOffsetOuter1" result="shadowBlurOuter1"></feGaussianBlur>
            <feColorMatrix values="0 0 0 0 0   0 0 0 0 0   0 0 0 0 0  0 0 0 0.5 0" type="matrix" in="shadowBlurOuter1" result="shadowMatrixOuter1"></feColorMatrix>
            <feMerge>
                <feMergeNode in="shadowMatrixOuter1"></feMergeNode>
                <feMergeNode in="SourceGraphic"></feMergeNode>
            </feMerge>
        </filter>
    </defs>
    <g id="Diagrama-1" stroke="none" stroke-width="1" fill="none" fill-rule="evenodd">
        <g id="Red-group" transform="translate(320.000000, 1.000000)">
            <path d="M165.250163,109.329548 C163.841272,82.0238878 146.860659,53.6563419 121.434747,42.0854147 C74.8414899,20.8815661 5.62927159,35.7219234 0.39152668,97.928968 C-2.23100743,129.075979 8.57989976,149.474502 25.0652607,166.533683 C46.9121203,189.140984 87.9120713,195.843817 124.437886,181.056406 C143.782267,173.224868 163.513362,139.674012 165.250163,120.628679 L165.250163,109.329548 Z" id="Red" stroke="url(#linearGradient-1)" stroke-width="2" fill-opacity="0.7" fill="#CE5555" transform="translate(82.625082, 110.966035) scale(-1, 1) translate(-82.625082, -110.966035) "></path>
            <g id="noun_study_643060" filter="url(#filter-2)" transform="translate(114.000000, 55.000000)" fill="#FFFFFF">
                <g id="Group">
                    <path d="M8.16704,21.9302851 L8.16704,12.0950766 L14.37296,8.76130426 C14.71428,8.57821702 14.84392,8.14978723 14.66248,7.80455319 C14.48076,7.45960213 14.05712,7.3283 13.71552,7.51195319 L7.24304,10.9889128 C7.00112,11.119083 6.86756,11.2130319 6.79336,11.478183 C6.7452,11.6329723 6.76704,11.8675617 6.76704,12.0048064 L6.76704,21.9300021 C5.93292,22.223734 5.33204,23.0242809 5.33204,23.966034 L5.33204,26.5835872 L9.60204,26.5835872 L9.60204,23.966034 C9.60204,23.0245638 9.00088,22.224017 8.16704,21.9302851 Z" id="Path"></path>
                    <path d="M5.64704,12.674617 L4.9,12.262034 L4.9,14.110734 C4.9,14.9789128 5.1674,15.8046447 5.64704,16.5539723 L5.64704,12.674617 Z" id="Path"></path>
                    <path d="M13.99972,17.2883021 L13.28908,16.8955277 L9.28704,14.5173745 L9.28704,19.3758362 C10.66184,19.9395298 12.27464,20.2643894 14,20.2643894 C19.02572,20.2643894 23.1,17.5098745 23.1,14.111017 L23.1,12.262034 L14.71036,16.8955277 L13.99972,17.2883021 Z" id="Path"></path>
                    <path d="M14,0.157619149 L0.08204,7.92397021 L0.14056,7.95651277 L5.74084,11.0497532 C5.96624,10.3513617 6.4694,10.0757404 6.7172,9.94245745 L13.18968,6.46549787 C13.45204,6.32457447 13.74716,6.25015106 14.0434,6.25015106 C14.71736,6.25015106 15.33364,6.62368298 15.65144,7.22699362 C16.12184,8.12290426 15.78388,9.23840638 14.89852,9.71409362 L9.28676,12.728383 L13.99972,15.6113702 L27.87624,7.94717447 L27.91796,7.92397021 L14,0.157619149 Z" id="Path"></path>
                    <path d="M14.01848,7.38517872 C14.03528,7.38461277 14.05208,7.38517872 14.06888,7.3854617 C14.0602,7.38517872 14.0518,7.38206596 14.04312,7.38206596 C14.035,7.38206596 14.02688,7.38489574 14.01848,7.38517872 Z" id="Path"></path>
                </g>
            </g>
            <text id="Coisas-que-preciso-f" font-family="Helvetica-Bold, Helvetica" font-size="23" font-weight="bold" fill="#34464C">
                <tspan x="124" y="23">Coisas que preciso fazer</tspan>
            </text>
            <g id="Arrow" transform="translate(214.672074, 72.679046) scale(-1, 1) rotate(8.000000) translate(-214.672074, -72.679046) translate(172.672074, 42.679046)" stroke-linecap="round" stroke-width="4">
                <path d="M0.531806108,0.11020888 C5.1760728,46.0724344 43.7126101,47.8925211 81.7498698,48.1444791" id="Path-2" stroke="#34464C"></path>
                <path d="M71.1732932,37.1034345 C79.1992082,43.2708122 83.2121657,46.9511604 83.2121657,48.1444791 C83.2121657,49.3377978 79.1992082,53.1868447 71.1732932,59.6916198" id="Path-3" stroke="#2B3D64"></path>
            </g>
        </g>
        <g id="Blue-group">
            <path d="M367.250163,111.329548 C365.841272,84.0238878 348.860659,55.6563419 323.434747,44.0854147 C276.84149,22.8815661 207.629272,37.7219234 202.391527,99.928968 C199.768993,131.075979 210.5799,151.474502 227.065261,168.533683 C248.91212,191.140984 289.912071,197.843817 326.437886,183.056406 C345.782267,175.224868 365.513362,141.674012 367.250163,122.628679 L367.250163,111.329548 Z" id="Blue" stroke="url(#linearGradient-3)" stroke-width="2" fill-opacity="0.7" fill="#555CCE"></path>
            <g id="noun_like_576529" filter="url(#filter-4)" transform="translate(220.000000, 53.000000)" fill="#FFFFFF">
                <g id="Group" transform="translate(13.095238, 0.000000)">
                    <path d="M5.2999256,21.4285714 L1.78266369,21.4285714 C0.807924107,21.4285714 0.01484375,20.6772321 0.01484375,19.753125 L0.01484375,9.71116071 C0.01484375,8.78772321 0.807924107,8.03571429 1.78266369,8.03571429 L5.2999256,8.03571429 C6.27466518,8.03571429 7.06845238,8.78772321 7.06845238,9.71116071 L7.06845238,19.753125 C7.06845238,20.6772321 6.27466518,21.4285714 5.2999256,21.4285714 Z M1.78266369,9.375 C1.5875744,9.375 1.42853423,9.52566964 1.42853423,9.71116071 L1.42853423,19.753125 C1.42853423,19.9379464 1.5875744,20.0892857 1.78266369,20.0892857 L5.2999256,20.0892857 C5.49572173,20.0892857 5.6547619,19.9379464 5.6547619,19.753125 L5.6547619,9.71116071 C5.6547619,9.52566964 5.49572173,9.375 5.2999256,9.375 L1.78266369,9.375 Z" id="Shape" fill-rule="nonzero"></path>
                    <path d="M18.255692,21.4285714 L9.68872768,21.4285714 C9.25260417,21.4285714 8.81648065,21.3308036 8.42559524,21.1459821 L6.04494048,20.0183036 C5.69575893,19.8529018 5.55438988,19.4504464 5.72898065,19.1196429 C5.90357143,18.7888393 6.32767857,18.6549107 6.67756696,18.8203125 L9.05822173,19.9479911 C9.25331101,20.0404018 9.47101935,20.0892857 9.68872768,20.0892857 L18.255692,20.0892857 C18.5136905,20.0892857 18.7540179,19.9573661 18.8826637,19.7444196 L19.680692,18.4212054 C20.6780506,16.7678571 21.2053571,14.8861607 21.2053571,12.9816964 L21.2053571,10.715625 C21.2053571,9.97633929 20.5706101,9.375 19.790253,9.375 L14.4698289,9.375 C14.0011905,9.375 13.5643601,9.15535714 13.3014137,8.78772321 C13.0391741,8.42008929 12.9861607,7.95401786 13.1600446,7.5421875 C13.8082217,6.00736607 14.1369048,4.39017857 14.1369048,2.73549107 L14.1369048,1.959375 C14.1369048,1.61785714 13.843564,1.33928571 13.4823661,1.33928571 L13.0427083,1.33928571 C12.7521949,1.33928571 12.4934896,1.52410714 12.4136161,1.78861607 L12.1365327,2.70669643 C11.5427827,4.6734375 10.5581473,6.48013393 9.20948661,8.07790179 C8.51395089,8.90223214 7.47630208,9.375 6.36160714,9.375 L4.24107143,9.375 C3.85089286,9.375 3.53422619,9.075 3.53422619,8.70535714 C3.53422619,8.33571429 3.85089286,8.03571429 4.24107143,8.03571429 L6.36160714,8.03571429 C7.0437128,8.03571429 7.67987351,7.74575893 8.10610119,7.24084821 C9.33671875,5.78236607 10.2358259,4.13303571 10.7772693,2.33839286 L11.0543527,1.4203125 C11.3066964,0.584598214 12.1245164,0 13.0427083,0 L13.4823661,0 C14.6232143,0 15.5505952,0.878571429 15.5505952,1.959375 L15.5505952,2.73549107 C15.5505952,4.56160714 15.1872768,6.34620536 14.4726562,8.03973214 L19.790253,8.03571429 C21.3502604,8.03571429 22.6190476,9.23772321 22.6190476,10.715625 L22.6190476,12.9816964 C22.6190476,15.1191964 22.0274182,17.2305804 20.9077753,19.0861607 L20.109747,20.409375 C19.7301711,21.0381696 19.0197917,21.4285714 18.255692,21.4285714 Z" id="Path"></path>
                    <ellipse id="Oval" cx="3.53422619" cy="18.0803571" rx="1" ry="1"></ellipse>
                </g>
            </g>
            <text id="Coisas-que-quero-faz" font-family="Helvetica-Bold, Helvetica" font-size="23" font-weight="bold" fill="#34464C">
                <tspan x="0" y="23">Coisas que quero fazer</tspan>
            </text>
            <g id="Arrow" transform="translate(150.319550, 73.076719) rotate(13.000000) translate(-150.319550, -73.076719) translate(108.319550, 43.076719)" stroke-linecap="round" stroke-width="4">
                <path d="M0.531806108,0.11020888 C5.1760728,46.0724344 43.7126101,47.8925211 81.7498698,48.1444791" id="Path-2" stroke="#34464C"></path>
                <path d="M71.1732932,37.1034345 C79.1992082,43.2708122 83.2121657,46.9511604 83.2121657,48.1444791 C83.2121657,49.3377978 79.1992082,53.1868447 71.1732932,59.6916198" id="Path-3" stroke="#2B3D64"></path>
            </g>
        </g>
    </g>
</svg>