<?xml version="1.0" encoding="UTF-8"?>
<svg width="287px" height="263px" viewBox="0 0 287 263" version="1.1" xmlns="http://www.w3.org/2000/svg" xmlns:xlink="http://www.w3.org/1999/xlink">
    <!-- Generator: Sketch 52.2 (67145) - http://www.bohemiancoding.com/sketch -->
    <title>diagrama-tarefas copy</title>
    <desc>Created with Sketch.</desc>
    <defs>
        <linearGradient x1="100%" y1="50%" x2="0%" y2="50%" id="linearGradient-1">
            <stop stop-color="#810808" offset="0%"></stop>
            <stop stop-color="#CE5555" offset="100%"></stop>
        </linearGradient>
        <filter x="-60.0%" y="-18.8%" width="220.0%" height="137.5%" filterUnits="objectBoundingBox" id="filter-2">
            <feOffset dx="0" dy="2" in="SourceAlpha" result="shadowOffsetOuter1"></feOffset>
            <feGaussianBlur stdDeviation="2" in="shadowOffsetOuter1" result="shadowBlurOuter1"></feGaussianBlur>
            <feColorMatrix values="0 0 0 0 0   0 0 0 0 0   0 0 0 0 0  0 0 0 0.5 0" type="matrix" in="shadowBlurOuter1" result="shadowMatrixOuter1"></feColorMatrix>
            <feMerge>
                <feMergeNode in="shadowMatrixOuter1"></feMergeNode>
                <feMergeNode in="SourceGraphic"></feMergeNode>
            </feMerge>
        </filter>
        <linearGradient x1="50%" y1="97.6201228%" x2="50%" y2="0%" id="linearGradient-3">
            <stop stop-color="#319924" offset="0%"></stop>
            <stop stop-color="#64C857" offset="100%"></stop>
        </linearGradient>
        <filter x="-63.2%" y="-10.3%" width="226.3%" height="120.5%" filterUnits="objectBoundingBox" id="filter-4">
            <feOffset dx="0" dy="2" in="SourceAlpha" result="shadowOffsetOuter1"></feOffset>
            <feGaussianBlur stdDeviation="2" in="shadowOffsetOuter1" result="shadowBlurOuter1"></feGaussianBlur>
            <feColorMatrix values="0 0 0 0 0   0 0 0 0 0   0 0 0 0 0  0 0 0 0.5 0" type="matrix" in="shadowBlurOuter1" result="shadowMatrixOuter1"></feColorMatrix>
            <feMerge>
                <feMergeNode in="shadowMatrixOuter1"></feMergeNode>
                <feMergeNode in="SourceGraphic"></feMergeNode>
            </feMerge>
        </filter>
        <linearGradient x1="100%" y1="50%" x2="0%" y2="50%" id="linearGradient-5">
            <stop stop-color="#313AC5" offset="0%"></stop>
            <stop stop-color="#785BD2" offset="100%"></stop>
        </linearGradient>
        <filter x="-28.6%" y="-37.5%" width="157.1%" height="175.0%" filterUnits="objectBoundingBox" id="filter-6">
            <feOffset dx="0" dy="2" in="SourceAlpha" result="shadowOffsetOuter1"></feOffset>
            <feGaussianBlur stdDeviation="2" in="shadowOffsetOuter1" result="shadowBlurOuter1"></feGaussianBlur>
            <feColorMatrix values="0 0 0 0 0   0 0 0 0 0   0 0 0 0 0  0 0 0 0.5 0" type="matrix" in="shadowBlurOuter1" result="shadowMatrixOuter1"></feColorMatrix>
            <feMerge>
                <feMergeNode in="shadowMatrixOuter1"></feMergeNode>
                <feMergeNode in="SourceGraphic"></feMergeNode>
            </feMerge>
        </filter>
    </defs>
    <g id="Page-1" stroke="none" stroke-width="1" fill="none" fill-rule="evenodd">
        <g id="Red-group" transform="translate(120.000000, 1.000000)">
            <path d="M165.250163,76.3295482 C163.841272,49.0238878 146.860659,20.6563419 121.434747,9.08541473 C74.8414899,-12.1184339 5.62927159,2.7219234 0.39152668,64.928968 C-2.23100743,96.0759786 8.57989976,116.474502 25.0652607,133.533683 C46.9121203,156.140984 87.9120713,162.843817 124.437886,148.056406 C143.782267,140.224868 163.513362,106.674012 165.250163,87.6286789 L165.250163,76.3295482 Z" id="Red" stroke="url(#linearGradient-1)" stroke-width="2" fill-opacity="0.7" fill="#CE5555" transform="translate(82.625082, 77.966035) scale(-1, 1) translate(-82.625082, -77.966035) "></path>
            <g id="noun_study_643060" filter="url(#filter-2)" transform="translate(118.000000, 22.000000)" fill="#FFFFFF">
                <g id="Group">
                    <path d="M5.8336,15.6644894 L5.8336,8.63934043 L10.2664,6.25807447 C10.5102,6.12729787 10.6028,5.8212766 10.4732,5.57468085 C10.3434,5.32828723 10.0408,5.2345 9.7968,5.36568085 L5.1736,7.8492234 C5.0008,7.94220213 4.9054,8.00930851 4.8524,8.19870213 C4.818,8.30926596 4.8336,8.47682979 4.8336,8.5748617 L4.8336,15.6642872 C4.2378,15.8740957 3.8086,16.4459149 3.8086,17.1185957 L3.8086,18.9882766 L6.8586,18.9882766 L6.8586,17.1185957 C6.8586,16.446117 6.4292,15.8742979 5.8336,15.6644894 Z" id="Path"></path>
                    <path d="M4.0336,9.05329787 L3.5,8.75859574 L3.5,10.0790957 C3.5,10.6992234 3.691,11.2890319 4.0336,11.824266 L4.0336,9.05329787 Z" id="Path"></path>
                    <path d="M9.9998,12.3487872 L9.4922,12.068234 L6.6336,10.3695532 L6.6336,13.839883 C7.6156,14.2425213 8.7676,14.4745638 10,14.4745638 C13.5898,14.4745638 16.5,12.5070532 16.5,10.0792979 L16.5,8.75859574 L10.5074,12.068234 L9.9998,12.3487872 Z" id="Path"></path>
                    <path d="M10,0.112585106 L0.0586,5.65997872 L0.1004,5.6832234 L4.1006,7.89268085 C4.2616,7.39382979 4.621,7.19695745 4.798,7.10175532 L9.4212,4.61821277 C9.6086,4.51755319 9.8194,4.46439362 10.031,4.46439362 C10.5124,4.46439362 10.9526,4.73120213 11.1796,5.1621383 C11.5156,5.80207447 11.2742,6.5988617 10.6418,6.9386383 L6.6334,9.09170213 L9.9998,11.1509787 L19.9116,5.67655319 L19.9414,5.65997872 L10,0.112585106 Z" id="Path"></path>
                    <path d="M10.0132,5.27512766 C10.0252,5.2747234 10.0372,5.27512766 10.0492,5.27532979 C10.043,5.27512766 10.037,5.27290426 10.0308,5.27290426 C10.025,5.27290426 10.0192,5.27492553 10.0132,5.27512766 Z" id="Path"></path>
                </g>
            </g>
        </g>
        <g id="Green-group" transform="translate(61.000000, 106.000000)">
            <path d="M165.250163,76.3295482 C163.841272,49.0238878 146.860659,20.6563419 121.434747,9.08541473 C74.8414899,-12.1184339 5.62927159,2.7219234 0.39152668,64.928968 C-2.23100743,96.0759786 8.57989976,116.474502 25.0652607,133.533683 C46.9121203,156.140984 87.9120713,162.843817 124.437886,148.056406 C143.782267,140.224868 163.513362,106.674012 165.250163,87.6286789 L165.250163,76.3295482 Z" id="Green" stroke="url(#linearGradient-3)" stroke-width="2" fill-opacity="0.7" fill="#55BC48" transform="translate(82.625082, 77.966035) scale(-1, -1) translate(-82.625082, -77.966035) "></path>
            <g id="noun_Heart_1984775" filter="url(#filter-4)" transform="translate(74.000000, 30.000000)" fill="#FFFFFF">
                <path d="M9.48854041,102.832527 C12.628468,98.1477555 19,99.6640825 19,104.529908 C19,109.35047 14.3932449,112.179438 9.48854041,117 C4.60675513,112.179438 0,109.35047 0,104.529908 C0,99.6640825 6.37153197,98.1477555 9.48854041,102.832527 Z" id="Path"></path>
            </g>
        </g>
        <g id="Blue-group" transform="translate(2.000000, 2.000000)">
            <path d="M165.250163,76.3295482 C163.841272,49.0238878 146.860659,20.6563419 121.434747,9.08541473 C74.8414899,-12.1184339 5.62927159,2.7219234 0.39152668,64.928968 C-2.23100743,96.0759786 8.57989976,116.474502 25.0652607,133.533683 C46.9121203,156.140984 87.9120713,162.843817 124.437886,148.056406 C143.782267,140.224868 163.513362,106.674012 165.250163,87.6286789 L165.250163,76.3295482 Z" id="Blue" stroke="url(#linearGradient-5)" stroke-width="2" fill-opacity="0.7" fill="#555CCE"></path>
            <g id="noun_like_576529" filter="url(#filter-6)" transform="translate(19.000000, 15.000000)" fill="#FFFFFF">
                <g id="Group" transform="translate(11.000000, 0.000000)">
                    <path d="M4.4519375,18 L1.4974375,18 C0.67865625,18 0.01246875,17.368875 0.01246875,16.592625 L0.01246875,8.157375 C0.01246875,7.3816875 0.67865625,6.75 1.4974375,6.75 L4.4519375,6.75 C5.27071875,6.75 5.9375,7.3816875 5.9375,8.157375 L5.9375,16.592625 C5.9375,17.368875 5.27071875,18 4.4519375,18 Z M1.4974375,7.875 C1.3335625,7.875 1.19996875,8.0015625 1.19996875,8.157375 L1.19996875,16.592625 C1.19996875,16.747875 1.3335625,16.875 1.4974375,16.875 L4.4519375,16.875 C4.61640625,16.875 4.75,16.747875 4.75,16.592625 L4.75,8.157375 C4.75,8.0015625 4.61640625,7.875 4.4519375,7.875 L1.4974375,7.875 Z" id="Shape" fill-rule="nonzero"></path>
                    <path d="M15.3347812,18 L8.13853125,18 C7.7721875,18 7.40584375,17.917875 7.0775,17.762625 L5.07775,16.815375 C4.7844375,16.6764375 4.6656875,16.338375 4.81234375,16.0605 C4.959,15.782625 5.31525,15.670125 5.60915625,15.8090625 L7.60890625,16.7563125 C7.77278125,16.8339375 7.95565625,16.875 8.13853125,16.875 L15.3347812,16.875 C15.5515,16.875 15.753375,16.7641875 15.8614375,16.5853125 L16.5317812,15.4738125 C17.3695625,14.085 17.8125,12.504375 17.8125,10.904625 L17.8125,9.001125 C17.8125,8.380125 17.2793125,7.875 16.6238125,7.875 L12.1546562,7.875 C11.761,7.875 11.3940625,7.6905 11.1731875,7.3816875 C10.9529063,7.072875 10.908375,6.681375 11.0544375,6.3354375 C11.5989062,5.0461875 11.875,3.68775 11.875,2.2978125 L11.875,1.645875 C11.875,1.359 11.6285938,1.125 11.3251875,1.125 L10.955875,1.125 C10.7118437,1.125 10.4945313,1.28025 10.4274375,1.5024375 L10.1946875,2.273625 C9.6959375,3.9256875 8.86884375,5.4433125 7.73596875,6.7854375 C7.15171875,7.477875 6.28009375,7.875 5.34375,7.875 L3.5625,7.875 C3.23475,7.875 2.96875,7.623 2.96875,7.3125 C2.96875,7.002 3.23475,6.75 3.5625,6.75 L5.34375,6.75 C5.91671875,6.75 6.45109375,6.5064375 6.809125,6.0823125 C7.84284375,4.8571875 8.59809375,3.47175 9.05290625,1.96425 L9.28565625,1.1930625 C9.497625,0.4910625 10.1845937,0 10.955875,0 L11.3251875,0 C12.2835,0 13.0625,0.738 13.0625,1.645875 L13.0625,2.2978125 C13.0625,3.83175 12.7573125,5.3308125 12.1570312,6.753375 L16.6238125,6.75 C17.9342187,6.75 19,7.7596875 19,9.001125 L19,10.904625 C19,12.700125 18.5030312,14.4736875 17.5625312,16.032375 L16.8921875,17.143875 C16.5733437,17.6720625 15.976625,18 15.3347812,18 Z" id="Path"></path>
                    <ellipse id="Oval" cx="2.96875" cy="15.1875" rx="1" ry="1"></ellipse>
                </g>
            </g>
        </g>
    </g>
</svg>