<?xml version="1.0" encoding="UTF-8"?>
<svg width="347px" height="347px" viewBox="0 0 347 347" version="1.1" xmlns="http://www.w3.org/2000/svg" xmlns:xlink="http://www.w3.org/1999/xlink">
    <!-- Generator: Sketch 52.2 (67145) - http://www.bohemiancoding.com/sketch -->
    <title>Diagrama Tarefas - 6</title>
    <desc>Created with Sketch.</desc>
    <defs>
        <linearGradient x1="100%" y1="50%" x2="0%" y2="50%" id="linearGradient-1">
            <stop stop-color="#810808" offset="0%"></stop>
            <stop stop-color="#CE5555" offset="100%"></stop>
        </linearGradient>
        <linearGradient x1="50%" y1="97.6201228%" x2="50%" y2="0%" id="linearGradient-2">
            <stop stop-color="#319924" offset="0%"></stop>
            <stop stop-color="#64C857" offset="100%"></stop>
        </linearGradient>
        <linearGradient x1="100%" y1="50%" x2="0%" y2="50%" id="linearGradient-3">
            <stop stop-color="#313AC5" offset="0%"></stop>
            <stop stop-color="#785BD2" offset="100%"></stop>
        </linearGradient>
        <filter x="-7.7%" y="-12.8%" width="115.4%" height="125.6%" filterUnits="objectBoundingBox" id="filter-4">
            <feOffset dx="0" dy="2" in="SourceAlpha" result="shadowOffsetOuter1"></feOffset>
            <feGaussianBlur stdDeviation="2" in="shadowOffsetOuter1" result="shadowBlurOuter1"></feGaussianBlur>
            <feColorMatrix values="0 0 0 0 0   0 0 0 0 0   0 0 0 0 0  0 0 0 0.5 0" type="matrix" in="shadowBlurOuter1" result="shadowMatrixOuter1"></feColorMatrix>
            <feMerge>
                <feMergeNode in="shadowMatrixOuter1"></feMergeNode>
                <feMergeNode in="SourceGraphic"></feMergeNode>
            </feMerge>
        </filter>
        <filter x="-17.5%" y="-2.9%" width="136.0%" height="105.7%" filterUnits="objectBoundingBox" id="filter-5">
            <feOffset dx="0" dy="2" in="SourceAlpha" result="shadowOffsetOuter1"></feOffset>
            <feGaussianBlur stdDeviation="2" in="shadowOffsetOuter1" result="shadowBlurOuter1"></feGaussianBlur>
            <feColorMatrix values="0 0 0 0 0   0 0 0 0 0   0 0 0 0 0  0 0 0 0.5 0" type="matrix" in="shadowBlurOuter1" result="shadowMatrixOuter1"></feColorMatrix>
            <feMerge>
                <feMergeNode in="shadowMatrixOuter1"></feMergeNode>
                <feMergeNode in="SourceGraphic"></feMergeNode>
            </feMerge>
        </filter>
        <filter x="-14.6%" y="-9.5%" width="129.9%" height="118.9%" filterUnits="objectBoundingBox" id="filter-6">
            <feOffset dx="0" dy="2" in="SourceAlpha" result="shadowOffsetOuter1"></feOffset>
            <feGaussianBlur stdDeviation="2" in="shadowOffsetOuter1" result="shadowBlurOuter1"></feGaussianBlur>
            <feColorMatrix values="0 0 0 0 0   0 0 0 0 0   0 0 0 0 0  0 0 0 0.5 0" type="matrix" in="shadowBlurOuter1" result="shadowMatrixOuter1"></feColorMatrix>
            <feMerge>
                <feMergeNode in="shadowMatrixOuter1"></feMergeNode>
                <feMergeNode in="SourceGraphic"></feMergeNode>
            </feMerge>
        </filter>
    </defs>
    <g id="Diagrama-6" stroke="none" stroke-width="1" fill="none" fill-rule="evenodd">
        <g id="Red-group" transform="translate(57.000000, -9.000000)" fill="#CE5555" fill-opacity="0.7" stroke="url(#linearGradient-1)" stroke-width="2">
            <path d="M257.139842,172.382039 C254.947516,129.32867 228.524595,84.6010048 188.960247,66.3568973 C116.458154,32.9243741 8.75950729,56.3234559 0.6092406,154.406521 C-3.47159051,203.516622 13.3508738,235.679374 39.0031516,262.576918 C72.998265,298.222293 136.796816,308.79078 193.633324,285.47518 C223.73442,273.127041 254.437268,220.226749 257.139842,190.1976 L257.139842,172.382039 Z" id="Red" transform="translate(128.569921, 174.962320) scale(-1, 1) translate(-128.569921, -174.962320) "></path>
        </g>
        <g id="Green-group" transform="translate(-348.000000, 64.000000)" fill="#55BC48" fill-opacity="0.7" stroke="url(#linearGradient-2)" stroke-width="2">
            <path d="M647.042333,120.257982 C644.852274,77.2376354 618.456668,32.5442775 578.933221,14.3141636 C506.506078,-19.0927163 398.918769,4.2884181 390.776928,102.296252 C386.700315,151.368685 403.505389,183.506767 429.131148,210.38368 C463.091118,246.001714 526.823715,256.562095 583.601467,233.264379 C613.671445,220.925711 644.342553,168.065995 647.042333,138.059878 L647.042333,120.257982 Z" id="Green" transform="translate(518.605325, 122.836283) scale(-1, -1) translate(-518.605325, -122.836283) "></path>
        </g>
        <g id="Blue-group" transform="translate(-327.000000, -11.000000)" fill="#555CCE" fill-opacity="0.7" stroke="url(#linearGradient-3)" stroke-width="2">
            <path d="M619.835878,174.863165 C617.648574,131.974693 591.286173,87.4183381 551.812445,69.2441069 C479.476413,35.9396326 372.024444,59.2490943 363.892845,156.956494 C359.821361,205.8785 376.605294,237.918066 402.198817,264.712591 C436.116067,300.221441 499.768491,310.749451 556.474818,287.523151 C586.506969,275.222306 617.139494,222.524626 619.835878,192.61049 L619.835878,174.863165 Z" id="Blue"></path>
        </g>
        <g id="noun_like_576529" filter="url(#filter-4)" transform="translate(28.178218, 110.137614)" fill="#FFFFFF">
            <g id="Group" transform="translate(40.711928, 0.000000)">
                <path d="M16.4769964,67.4330132 L5.54214256,67.4330132 C2.51176406,67.4330132 0.046147896,65.0686431 0.046147896,62.1605944 L0.046147896,30.5597987 C0.046147896,27.6538572 2.51176406,25.2873799 5.54214256,25.2873799 L16.4769964,25.2873799 C19.5073749,25.2873799 21.9751886,27.6538572 21.9751886,30.5597987 L21.9751886,62.1605944 C21.9751886,65.0686431 19.5073749,67.4330132 16.4769964,67.4330132 Z M5.54214256,29.5019433 C4.93562736,29.5019433 4.44118561,29.9760816 4.44118561,30.5597987 L4.44118561,62.1605944 C4.44118561,62.7422042 4.93562736,63.2184498 5.54214256,63.2184498 L16.4769964,63.2184498 C17.0857091,63.2184498 17.5801509,62.7422042 17.5801509,62.1605944 L17.5801509,30.5597987 C17.5801509,29.9760816 17.0857091,29.5019433 16.4769964,29.5019433 L5.54214256,29.5019433 Z" id="Shape" fill-rule="nonzero"></path>
                <path d="M56.7553196,67.4330132 L30.121391,67.4330132 C28.7655219,67.4330132 27.4096527,67.12535 26.1944248,66.5437403 L18.7931813,62.995078 C17.707607,62.4745794 17.2681032,61.2081031 17.8108904,60.167106 C18.3536775,59.1261089 19.6721888,58.7046525 20.7599607,59.2251511 L28.1612042,62.7738134 C28.7677194,63.0646183 29.4445552,63.2184498 30.121391,63.2184498 L56.7553196,63.2184498 C57.557414,63.2184498 58.3045704,62.8033154 58.7045188,62.1331998 L61.1855176,57.9692112 C64.2862167,52.7663328 65.9255658,46.8448713 65.9255658,40.8517623 L65.9255658,33.7207211 C65.9255658,31.3942822 63.9521938,29.5019433 61.526133,29.5019433 L44.9854086,29.5019433 C43.5284536,29.5019433 42.1703869,28.8107549 41.3529099,27.6538572 C40.5376304,26.4969596 40.3728165,25.0302916 40.9134061,23.7343134 C42.9285309,18.9044238 43.9503772,13.8153386 43.9503772,8.60824559 L43.9503772,6.16590614 C43.9503772,5.09119249 43.0384069,4.21456332 41.9154747,4.21456332 L40.548618,4.21456332 C39.6454377,4.21456332 38.8411458,4.79617306 38.5928262,5.62854932 L37.7313988,8.51763247 C35.885483,14.7067187 32.8243392,20.3921646 28.6314732,25.4201387 C26.4691147,28.0142024 23.243157,29.5019433 19.7776697,29.5019433 L13.1851132,29.5019433 C11.9720827,29.5019433 10.9875943,28.5578811 10.9875943,27.3946616 C10.9875943,26.2314421 11.9720827,25.2873799 13.1851132,25.2873799 L19.7776697,25.2873799 C21.8982754,25.2873799 23.8760424,24.374927 25.2011463,22.7860366 C29.0270266,18.1963771 31.8222706,13.0061424 33.50557,7.35862756 L34.3669974,4.4695444 C35.1515117,1.83965689 37.694041,0 40.548618,0 L41.9154747,0 C45.4622702,0 48.3454149,2.76475354 48.3454149,6.16590614 L48.3454149,8.60824559 C48.3454149,14.3548027 47.2158902,19.9707083 44.9941986,25.3000236 L61.526133,25.2873799 C66.3760571,25.2873799 70.3206035,29.0699505 70.3206035,33.7207211 L70.3206035,40.8517623 C70.3206035,47.5782053 68.4812802,54.2224644 65.0004103,60.0617419 L62.5194115,64.2257305 C61.3393439,66.204468 59.1308375,67.4330132 56.7553196,67.4330132 Z" id="Path"></path>
                <ellipse id="Oval" cx="10.9875943" cy="56.8966049" rx="2.19751886" ry="2.10728166"></ellipse>
            </g>
        </g>
        <g id="noun_Heart_1984775" filter="url(#filter-5)" transform="translate(138.544554, -144.759176)" fill="#FFFFFF">
            <path d="M34.1567677,367.159243 C45.4598526,350.037619 68.3960396,355.579401 68.3960396,373.36273 C68.3960396,390.980633 51.8126814,401.319778 34.1567677,418.93768 C16.5833582,401.319778 0,390.980633 0,373.36273 C0,355.579401 22.936187,350.037619 34.1567677,367.159243 Z" id="Path"></path>
        </g>
        <g id="noun_study_643060" filter="url(#filter-6)" transform="translate(200.722772, 111.711051)" fill="#FFFFFF">
            <g id="Group">
                <path d="M24.0303889,65.6272908 L24.0303889,36.19502 L42.2904527,26.2185676 C43.2947397,25.6706714 43.6761875,24.3885774 43.1423253,23.3554502 C42.6076393,22.3231698 41.361137,21.9302427 40.3560261,22.4798325 L21.3116463,32.8847787 C20.5998301,33.2743185 20.2068482,33.5554646 19.988525,34.3489402 C19.8468208,34.8121538 19.911082,35.5141722 19.911082,35.9248827 L19.911082,65.6264439 C17.4567989,66.5054489 15.6887924,68.9011186 15.6887924,71.7193542 L15.6887924,79.552491 L28.2526785,79.552491 L28.2526785,71.7193542 C28.2526785,68.9019654 26.4838481,66.5062957 24.0303889,65.6272908 Z" id="Path"></path>
                <path d="M16.6156364,37.9293189 L14.4175743,36.6946471 L14.4175743,42.2269588 C14.4175743,44.8250198 15.2043619,47.2960569 16.6156364,49.5384511 L16.6156364,37.9293189 Z" id="Path"></path>
                <path d="M41.1922454,51.7359635 L39.1012852,50.5605696 L27.3258345,43.4438472 L27.3258345,57.982996 C31.3709939,59.6698726 36.1164354,60.6420284 41.1930693,60.6420284 C55.9805573,60.6420284 67.9685644,52.399028 67.9685644,42.2278056 L67.9685644,36.6946471 L43.2832056,50.5605696 L41.1922454,51.7359635 Z" id="Path"></path>
                <path d="M41.1930693,0.471681862 L0.241391386,23.7128106 L0.413578416,23.8101955 L16.89163,33.0668462 C17.5548384,30.9768806 19.0353173,30.1520725 19.7644347,29.7532176 L38.8088145,19.3482714 C39.5807726,18.9265523 40.4491225,18.7038371 41.3207678,18.7038371 C43.3038022,18.7038371 45.1171211,19.8216469 46.0522038,21.6270791 C47.4362909,24.308129 46.4418902,27.6463155 43.8368405,29.0698294 L27.3250106,38.0902157 L41.1922454,46.717675 L82.0219919,23.7822503 L82.1447472,23.7128106 L41.1930693,0.471681862 Z" id="Path"></path>
                <path d="M41.2474442,22.1004546 C41.2968758,22.098761 41.3463075,22.1004546 41.3957392,22.1013015 C41.3701995,22.1004546 41.3454837,22.0911396 41.319944,22.0911396 C41.296052,22.0911396 41.27216,22.0996078 41.2474442,22.1004546 Z" id="Path"></path>
            </g>
        </g>
    </g>
</svg>