<?xml version="1.0" encoding="UTF-8"?>
<svg width="598px" height="319px" viewBox="0 0 598 319" version="1.1" xmlns="http://www.w3.org/2000/svg" xmlns:xlink="http://www.w3.org/1999/xlink">
    <!-- Generator: Sketch 52.2 (67145) - http://www.bohemiancoding.com/sketch -->
    <title>Diagrama Tarefas - 4</title>
    <desc>Created with Sketch.</desc>
    <defs>
        <linearGradient x1="100%" y1="50%" x2="0%" y2="50%" id="linearGradient-1">
            <stop stop-color="#810808" offset="0%"></stop>
            <stop stop-color="#CE5555" offset="100%"></stop>
        </linearGradient>
        <linearGradient x1="50%" y1="97.6201228%" x2="50%" y2="0%" id="linearGradient-2">
            <stop stop-color="#319924" offset="0%"></stop>
            <stop stop-color="#64C857" offset="100%"></stop>
        </linearGradient>
        <filter x="-46.2%" y="-7.5%" width="192.3%" height="115.5%" filterUnits="objectBoundingBox" id="filter-3">
            <feOffset dx="0" dy="2" in="SourceAlpha" result="shadowOffsetOuter1"></feOffset>
            <feGaussianBlur stdDeviation="2" in="shadowOffsetOuter1" result="shadowBlurOuter1"></feGaussianBlur>
            <feColorMatrix values="0 0 0 0 0   0 0 0 0 0   0 0 0 0 0  0 0 0 0.5 0" type="matrix" in="shadowBlurOuter1" result="shadowMatrixOuter1"></feColorMatrix>
            <feMerge>
                <feMergeNode in="shadowMatrixOuter1"></feMergeNode>
                <feMergeNode in="SourceGraphic"></feMergeNode>
            </feMerge>
        </filter>
        <linearGradient x1="100%" y1="50%" x2="0%" y2="50%" id="linearGradient-4">
            <stop stop-color="#313AC5" offset="0%"></stop>
            <stop stop-color="#785BD2" offset="100%"></stop>
        </linearGradient>
        <filter x="-14.3%" y="-24.0%" width="128.6%" height="148.0%" filterUnits="objectBoundingBox" id="filter-5">
            <feOffset dx="0" dy="2" in="SourceAlpha" result="shadowOffsetOuter1"></feOffset>
            <feGaussianBlur stdDeviation="2" in="shadowOffsetOuter1" result="shadowBlurOuter1"></feGaussianBlur>
            <feColorMatrix values="0 0 0 0 0   0 0 0 0 0   0 0 0 0 0  0 0 0 0.5 0" type="matrix" in="shadowBlurOuter1" result="shadowMatrixOuter1"></feColorMatrix>
            <feMerge>
                <feMergeNode in="shadowMatrixOuter1"></feMergeNode>
                <feMergeNode in="SourceGraphic"></feMergeNode>
            </feMerge>
        </filter>
        <filter x="-27.3%" y="-17.9%" width="154.5%" height="135.8%" filterUnits="objectBoundingBox" id="filter-6">
            <feOffset dx="0" dy="2" in="SourceAlpha" result="shadowOffsetOuter1"></feOffset>
            <feGaussianBlur stdDeviation="2" in="shadowOffsetOuter1" result="shadowBlurOuter1"></feGaussianBlur>
            <feColorMatrix values="0 0 0 0 0   0 0 0 0 0   0 0 0 0 0  0 0 0 0.5 0" type="matrix" in="shadowBlurOuter1" result="shadowMatrixOuter1"></feColorMatrix>
            <feMerge>
                <feMergeNode in="shadowMatrixOuter1"></feMergeNode>
                <feMergeNode in="SourceGraphic"></feMergeNode>
            </feMerge>
        </filter>
        <linearGradient x1="140.087033%" y1="50%" x2="-40.1535207%" y2="50%" id="linearGradient-7">
            <stop stop-color="#C54646" offset="2.66212066%"></stop>
            <stop stop-color="#2647BE" offset="98.3562139%"></stop>
        </linearGradient>
        <text id="text-8" font-family="Helvetica-Bold, Helvetica" font-size="44" font-weight="bold">
            <tspan x="288" y="132">+</tspan>
        </text>
        <filter x="-26.9%" y="-9.4%" width="153.8%" height="126.4%" filterUnits="objectBoundingBox" id="filter-9">
            <feOffset dx="0" dy="2" in="SourceAlpha" result="shadowOffsetOuter1"></feOffset>
            <feGaussianBlur stdDeviation="2" in="shadowOffsetOuter1" result="shadowBlurOuter1"></feGaussianBlur>
            <feColorMatrix values="0 0 0 0 0   0 0 0 0 0   0 0 0 0 0  0 0 0 0.5 0" type="matrix" in="shadowBlurOuter1"></feColorMatrix>
        </filter>
    </defs>
    <g id="Diagrama-4" stroke="none" stroke-width="1" fill="none" fill-rule="evenodd">
        <g id="Red-group" transform="translate(240.000000, 14.000000)" fill="#CE5555" fill-opacity="0.7" stroke="url(#linearGradient-1)" stroke-width="2">
            <path d="M165.250163,109.329548 C163.841272,82.0238878 146.860659,53.6563419 121.434747,42.0854147 C74.8414899,20.8815661 5.62927159,35.7219234 0.39152668,97.928968 C-2.23100743,129.075979 8.57989976,149.474502 25.0652607,166.533683 C46.9121203,189.140984 87.9120713,195.843817 124.437886,181.056406 C143.782267,173.224868 163.513362,139.674012 165.250163,120.628679 L165.250163,109.329548 Z" id="Red" transform="translate(82.625082, 110.966035) scale(-1, 1) translate(-82.625082, -110.966035) "></path>
        </g>
        <g id="Green-group" transform="translate(-33.000000, 129.000000)">
            <path d="M416.250163,91.3295482 C414.841272,64.0238878 397.860659,35.6563419 372.434747,24.0854147 C325.84149,2.88156609 256.629272,17.7219234 251.391527,79.928968 C248.768993,111.075979 259.5799,131.474502 276.065261,148.533683 C297.91212,171.140984 338.912071,177.843817 375.437886,163.056406 C394.782267,155.224868 414.513362,121.674012 416.250163,102.628679 L416.250163,91.3295482 Z" id="Green" stroke="url(#linearGradient-2)" stroke-width="2" fill-opacity="0.7" fill="#55BC48" transform="translate(333.625082, 92.966035) scale(-1, -1) translate(-333.625082, -92.966035) "></path>
            <g id="noun_Heart_1984775" filter="url(#filter-3)" transform="translate(325.000000, 0.000000)" fill="#FFFFFF">
                <path d="M12.9843185,140.718195 C17.2810615,134.307455 26,136.382429 26,143.040927 C26,149.637485 19.6960193,153.508705 12.9843185,160.105263 C6.3039807,153.508705 0,149.637485 0,143.040927 C0,136.382429 8.71893848,134.307455 12.9843185,140.718195 Z" id="Path"></path>
            </g>
        </g>
        <g id="Blue-group" transform="translate(-36.000000, 14.000000)">
            <path d="M399.250163,111.329548 C397.841272,84.0238878 380.860659,55.6563419 355.434747,44.0854147 C308.84149,22.8815661 239.629272,37.7219234 234.391527,99.928968 C231.768993,131.075979 242.5799,151.474502 259.065261,168.533683 C280.91212,191.140984 321.912071,197.843817 358.437886,183.056406 C377.782267,175.224868 397.513362,141.674012 399.250163,122.628679 L399.250163,111.329548 Z" id="Blue" stroke="url(#linearGradient-4)" stroke-width="2" fill-opacity="0.7" fill="#555CCE"></path>
            <g id="noun_like_576529" filter="url(#filter-5)" transform="translate(233.000000, 85.000000)" fill="#FFFFFF">
                <g id="Group" transform="translate(22.000000, 0.000000)">
                    <path d="M8.903875,36 L2.994875,36 C1.3573125,36 0.0249375,34.73775 0.0249375,33.18525 L0.0249375,16.31475 C0.0249375,14.763375 1.3573125,13.5 2.994875,13.5 L8.903875,13.5 C10.5414375,13.5 11.875,14.763375 11.875,16.31475 L11.875,33.18525 C11.875,34.73775 10.5414375,36 8.903875,36 Z M2.994875,15.75 C2.667125,15.75 2.3999375,16.003125 2.3999375,16.31475 L2.3999375,33.18525 C2.3999375,33.49575 2.667125,33.75 2.994875,33.75 L8.903875,33.75 C9.2328125,33.75 9.5,33.49575 9.5,33.18525 L9.5,16.31475 C9.5,16.003125 9.2328125,15.75 8.903875,15.75 L2.994875,15.75 Z" id="Shape" fill-rule="nonzero"></path>
                    <path d="M30.6695625,36 L16.2770625,36 C15.544375,36 14.8116875,35.83575 14.155,35.52525 L10.1555,33.63075 C9.568875,33.352875 9.331375,32.67675 9.6246875,32.121 C9.918,31.56525 10.6305,31.34025 11.2183125,31.618125 L15.2178125,33.512625 C15.5455625,33.667875 15.9113125,33.75 16.2770625,33.75 L30.6695625,33.75 C31.103,33.75 31.50675,33.528375 31.722875,33.170625 L33.0635625,30.947625 C34.739125,28.17 35.625,25.00875 35.625,21.80925 L35.625,18.00225 C35.625,16.76025 34.558625,15.75 33.247625,15.75 L24.3093125,15.75 C23.522,15.75 22.788125,15.381 22.346375,14.763375 C21.9058125,14.14575 21.81675,13.36275 22.108875,12.670875 C23.1978125,10.092375 23.75,7.3755 23.75,4.595625 L23.75,3.29175 C23.75,2.718 23.2571875,2.25 22.650375,2.25 L21.91175,2.25 C21.4236875,2.25 20.9890625,2.5605 20.854875,3.004875 L20.389375,4.54725 C19.391875,7.851375 17.7376875,10.886625 15.4719375,13.570875 C14.3034375,14.95575 12.5601875,15.75 10.6875,15.75 L7.125,15.75 C6.4695,15.75 5.9375,15.246 5.9375,14.625 C5.9375,14.004 6.4695,13.5 7.125,13.5 L10.6875,13.5 C11.8334375,13.5 12.9021875,13.012875 13.61825,12.164625 C15.6856875,9.714375 17.1961875,6.9435 18.1058125,3.9285 L18.5713125,2.386125 C18.99525,0.982125 20.3691875,0 21.91175,0 L22.650375,0 C24.567,0 26.125,1.476 26.125,3.29175 L26.125,4.595625 C26.125,7.6635 25.514625,10.661625 24.3140625,13.50675 L33.247625,13.5 C35.8684375,13.5 38,15.519375 38,18.00225 L38,21.80925 C38,25.40025 37.0060625,28.947375 35.1250625,32.06475 L33.784375,34.28775 C33.1466875,35.344125 31.95325,36 30.6695625,36 Z" id="Path"></path>
                    <ellipse id="Oval" cx="5.9375" cy="30.375" rx="1.1875" ry="1.125"></ellipse>
                </g>
            </g>
        </g>
        <g id="noun_study_643060" filter="url(#filter-6)" transform="translate(342.000000, 100.000000)" fill="#FFFFFF">
            <g id="Group">
                <path d="M12.83392,34.626766 L12.83392,19.0974894 L22.58608,13.8336383 C23.12244,13.5445532 23.32616,12.8680851 23.04104,12.3229787 C22.75548,11.7783191 22.08976,11.571 21.55296,11.8609787 L11.38192,17.3509149 C11.00176,17.5564468 10.79188,17.7047872 10.67528,18.1234468 C10.5996,18.3678511 10.63392,18.7382553 10.63392,18.9549574 L10.63392,34.6263191 C9.32316,35.0901064 8.37892,36.3541277 8.37892,37.8411064 L8.37892,41.9740851 L15.08892,41.9740851 L15.08892,37.8411064 C15.08892,36.3545745 14.14424,35.0905532 12.83392,34.626766 Z" id="Path"></path>
                <path d="M8.87392,20.0125532 L7.7,19.3611064 L7.7,22.2801064 C7.7,23.6509149 8.1202,24.9547021 8.87392,26.1378511 L8.87392,20.0125532 Z" id="Path"></path>
                <path d="M21.99956,27.2973191 L20.88284,26.6771489 L14.59392,22.9221702 L14.59392,30.5934255 C16.75432,31.4834681 19.28872,31.9964043 22,31.9964043 C29.89756,31.9964043 36.3,27.6471702 36.3,22.2805532 L36.3,19.3611064 L23.11628,26.6771489 L21.99956,27.2973191 Z" id="Path"></path>
                <path d="M22,0.24887234 L0.12892,12.5115319 L0.22088,12.5629149 L9.02132,17.4469787 C9.37552,16.3442553 10.1662,15.9090638 10.5556,15.698617 L20.72664,10.2086809 C21.13892,9.98617021 21.60268,9.86865957 22.0682,9.86865957 C23.12728,9.86865957 24.09572,10.4584468 24.59512,11.4110426 C25.33432,12.8256383 24.80324,14.5869574 23.41196,15.3380426 L14.59348,20.0974468 L21.99956,24.6495319 L43.80552,12.5481702 L43.87108,12.5115319 L22,0.24887234 Z" id="Path"></path>
                <path d="M22.02904,11.6608085 C22.05544,11.6599149 22.08184,11.6608085 22.10824,11.6612553 C22.0946,11.6608085 22.0814,11.6558936 22.06776,11.6558936 C22.055,11.6558936 22.04224,11.6603617 22.02904,11.6608085 Z" id="Path"></path>
            </g>
        </g>
        <g id="+">
            <use fill="#D8D8D8" fill-opacity="1" filter="url(#filter-9)" xlink:href="#text-8"></use>
            <use fill="url(#linearGradient-7)" fill-rule="evenodd" xlink:href="#text-8"></use>
            <use fill="#D8D8D8" fill-opacity="1" xlink:href="#text-8"></use>
        </g>
        <g id="Act-micro-tarefas" transform="translate(16.000000, 14.000000)">
            <path id="arrow-micro-tarefas" d="M90.5866818,47.1463524 L90.8348438,34.5174906 C90.8511196,33.6892234 91.535757,33.0309743 92.3640242,33.0472501 C93.1922915,33.0635258 93.8505406,33.7481632 93.8342648,34.5764304 L93.4736012,52.9304469 L93.4212103,55.5965989 L91.1699244,54.1673254 L75.671881,44.328085 C74.9724961,43.8840666 74.7654806,42.9571552 75.209499,42.2577703 C75.6535174,41.5583854 76.5804288,41.35137 77.2798137,41.7953883 L87.9435639,48.5654818 L83.1643709,39.6642705 C66.7084918,18.0101144 39.6352774,24.15121 31.7465875,53.7318618 C31.5331197,54.5323136 30.7111755,55.0081581 29.9107238,54.7946903 C29.110272,54.5812226 28.6344275,53.7592784 28.8478952,52.9588266 C37.3789314,20.9695339 67.6401434,14.1490445 85.6272018,37.9471158 L85.6971981,38.0397256 L85.7521119,38.1420022 L90.5866818,47.1463524 Z" fill="#425988" fill-rule="nonzero"></path>
            <text id="micro-tarefas" font-family="Helvetica-Bold, Helvetica" font-size="20" font-weight="bold" fill="#364A72">
                <tspan x="0" y="19">micro-tarefas</tspan>
            </text>
        </g>
    </g>
</svg>