<?xml version="1.0" encoding="UTF-8"?>
<svg width="577px" height="533px" viewBox="0 0 577 533" version="1.1" xmlns="http://www.w3.org/2000/svg" xmlns:xlink="http://www.w3.org/1999/xlink">
    <!-- Generator: Sketch 52.2 (67145) - http://www.bohemiancoding.com/sketch -->
    <title>Diagrama Tarefas - 2</title>
    <desc>Created with Sketch.</desc>
    <defs>
        <linearGradient x1="100%" y1="50%" x2="0%" y2="50%" id="linearGradient-1">
            <stop stop-color="#810808" offset="0%"></stop>
            <stop stop-color="#CE5555" offset="100%"></stop>
        </linearGradient>
        <filter x="-44.4%" y="-13.9%" width="188.9%" height="127.8%" filterUnits="objectBoundingBox" id="filter-2">
            <feOffset dx="0" dy="2" in="SourceAlpha" result="shadowOffsetOuter1"></feOffset>
            <feGaussianBlur stdDeviation="2" in="shadowOffsetOuter1" result="shadowBlurOuter1"></feGaussianBlur>
            <feColorMatrix values="0 0 0 0 0   0 0 0 0 0   0 0 0 0 0  0 0 0 0.5 0" type="matrix" in="shadowBlurOuter1" result="shadowMatrixOuter1"></feColorMatrix>
            <feMerge>
                <feMergeNode in="shadowMatrixOuter1"></feMergeNode>
                <feMergeNode in="SourceGraphic"></feMergeNode>
            </feMerge>
        </filter>
        <linearGradient x1="50%" y1="97.6201228%" x2="50%" y2="0%" id="linearGradient-3">
            <stop stop-color="#319924" offset="0%"></stop>
            <stop stop-color="#64C857" offset="100%"></stop>
        </linearGradient>
        <filter x="-46.2%" y="-7.5%" width="192.3%" height="115.5%" filterUnits="objectBoundingBox" id="filter-4">
            <feOffset dx="0" dy="2" in="SourceAlpha" result="shadowOffsetOuter1"></feOffset>
            <feGaussianBlur stdDeviation="2" in="shadowOffsetOuter1" result="shadowBlurOuter1"></feGaussianBlur>
            <feColorMatrix values="0 0 0 0 0   0 0 0 0 0   0 0 0 0 0  0 0 0 0.5 0" type="matrix" in="shadowBlurOuter1" result="shadowMatrixOuter1"></feColorMatrix>
            <feMerge>
                <feMergeNode in="shadowMatrixOuter1"></feMergeNode>
                <feMergeNode in="SourceGraphic"></feMergeNode>
            </feMerge>
        </filter>
        <linearGradient x1="100%" y1="50%" x2="0%" y2="50%" id="linearGradient-5">
            <stop stop-color="#313AC5" offset="0%"></stop>
            <stop stop-color="#785BD2" offset="100%"></stop>
        </linearGradient>
        <filter x="-24.5%" y="-32.1%" width="149.0%" height="164.3%" filterUnits="objectBoundingBox" id="filter-6">
            <feOffset dx="0" dy="2" in="SourceAlpha" result="shadowOffsetOuter1"></feOffset>
            <feGaussianBlur stdDeviation="2" in="shadowOffsetOuter1" result="shadowBlurOuter1"></feGaussianBlur>
            <feColorMatrix values="0 0 0 0 0   0 0 0 0 0   0 0 0 0 0  0 0 0 0.5 0" type="matrix" in="shadowBlurOuter1" result="shadowMatrixOuter1"></feColorMatrix>
            <feMerge>
                <feMergeNode in="shadowMatrixOuter1"></feMergeNode>
                <feMergeNode in="SourceGraphic"></feMergeNode>
            </feMerge>
        </filter>
    </defs>
    <g id="Diagrama-2" stroke="none" stroke-width="1" fill="none" fill-rule="evenodd">
        <g id="Red-group" transform="translate(269.000000, 31.000000)">
            <path d="M165.250163,133.329548 C163.841272,106.023888 146.860659,77.6563419 121.434747,66.0854147 C74.8414899,44.8815661 5.62927159,59.7219234 0.39152668,121.928968 C-2.23100743,153.075979 8.57989976,173.474502 25.0652607,190.533683 C46.9121203,213.140984 87.9120713,219.843817 124.437886,205.056406 C143.782267,197.224868 163.513362,163.674012 165.250163,144.628679 L165.250163,133.329548 Z" id="Red" stroke="url(#linearGradient-1)" stroke-width="2" fill-opacity="0.7" fill="#CE5555" transform="translate(82.625082, 134.966035) scale(-1, 1) translate(-82.625082, -134.966035) "></path>
            <g id="noun_study_643060" filter="url(#filter-2)" transform="translate(116.000000, 81.000000)" fill="#FFFFFF">
                <g id="Group">
                    <path d="M7.87536,21.1470606 L7.87536,11.6631096 L13.85964,8.44840053 C14.18877,8.27185213 14.31378,7.8587234 14.13882,7.52581915 C13.96359,7.19318777 13.55508,7.066575 13.22568,7.24366915 L6.98436,10.5964516 C6.75108,10.7219729 6.62229,10.8125665 6.55074,11.0682479 C6.5043,11.217509 6.52536,11.4437202 6.52536,11.5760633 L6.52536,21.1467878 C5.72103,21.4300293 5.14161,22.2019851 5.14161,23.1101043 L5.14161,25.6341734 L9.25911,25.6341734 L9.25911,23.1101043 C9.25911,22.202258 8.67942,21.4303021 7.87536,21.1470606 Z" id="Path"></path>
                    <path d="M5.44536,12.2219521 L4.725,11.8241043 L4.725,13.6067793 C4.725,14.4439516 4.98285,15.2401931 5.44536,15.962759 L5.44536,12.2219521 Z" id="Path"></path>
                    <path d="M13.49973,16.6708628 L12.81447,16.292116 L8.95536,13.9988968 L8.95536,18.683842 C10.28106,19.2274037 11.83626,19.5406612 13.5,19.5406612 C18.34623,19.5406612 22.275,16.8845218 22.275,13.6070521 L22.275,11.8241043 L14.18499,16.292116 L13.49973,16.6708628 Z" id="Path"></path>
                    <path d="M13.5,0.151989894 L0.07911,7.64097128 L0.13554,7.6723516 L5.53581,10.6551191 C5.75316,9.98167021 6.23835,9.71589255 6.4773,9.58736968 L12.71862,6.23458723 C12.97161,6.09869681 13.25619,6.02693138 13.54185,6.02693138 C14.19174,6.02693138 14.78601,6.38712287 15.09246,6.9688867 C15.54606,7.83280053 15.22017,8.9084633 14.36643,9.3671617 L8.95509,12.2737979 L13.49973,15.0538213 L26.88066,7.66334681 L26.92089,7.64097128 L13.5,0.151989894 Z" id="Path"></path>
                    <path d="M13.51782,7.12142234 C13.53402,7.1208766 13.55022,7.12142234 13.56642,7.12169521 C13.55805,7.12142234 13.54995,7.11842074 13.54158,7.11842074 C13.53375,7.11842074 13.52592,7.12114947 13.51782,7.12142234 Z" id="Path"></path>
                </g>
            </g>
            <text id="Coisas-que-devo-faze" font-family="Helvetica-Bold, Helvetica" font-size="23" font-weight="bold" fill="#34464C">
                <tspan x="156" y="23">Coisas que </tspan>
                <tspan x="156" y="51">devo fazer</tspan>
            </text>
            <g id="Arrow" transform="translate(214.672074, 96.679046) scale(-1, 1) rotate(8.000000) translate(-214.672074, -96.679046) translate(172.672074, 66.679046)" stroke-linecap="round" stroke-width="4">
                <path d="M0.531806108,0.11020888 C5.1760728,46.0724344 43.7126101,47.8925211 81.7498698,48.1444791" id="Path-2" stroke="#34464C"></path>
                <path d="M71.1732932,37.1034345 C79.1992082,43.2708122 83.2121657,46.9511604 83.2121657,48.1444791 C83.2121657,49.3377978 79.1992082,53.1868447 71.1732932,59.6916198" id="Path-3" stroke="#2B3D64"></path>
            </g>
        </g>
        <g id="Green-group" transform="translate(175.000000, 170.000000)">
            <path d="M200.250163,91.3295482 C198.841272,64.0238878 181.860659,35.6563419 156.434747,24.0854147 C109.84149,2.88156609 40.6292716,17.7219234 35.3915267,79.928968 C32.7689926,111.075979 43.5798998,131.474502 60.0652607,148.533683 C81.9121203,171.140984 122.912071,177.843817 159.437886,163.056406 C178.782267,155.224868 198.513362,121.674012 200.250163,102.628679 L200.250163,91.3295482 Z" id="Green" stroke="url(#linearGradient-3)" stroke-width="2" fill-opacity="0.7" fill="#55BC48" transform="translate(117.625082, 92.966035) scale(-1, -1) translate(-117.625082, -92.966035) "></path>
            <g id="noun_Heart_1984775" filter="url(#filter-4)" transform="translate(109.000000, 0.000000)" fill="#FFFFFF">
                <path d="M12.9843185,140.718195 C17.2810615,134.307455 26,136.382429 26,143.040927 C26,149.637485 19.6960193,153.508705 12.9843185,160.105263 C6.3039807,153.508705 0,149.637485 0,143.040927 C0,136.382429 8.71893848,134.307455 12.9843185,140.718195 Z" id="Path"></path>
            </g>
            <text id="coisas-que-me-sinto" font-family="Helvetica-Bold, Helvetica" font-size="23" font-weight="bold" fill="#34464C">
                <tspan x="0" y="266.556441">coisas que me sinto </tspan>
                <tspan x="0" y="294.556441">plenamente realizado </tspan>
                <tspan x="0" y="322.556441">ao fazer</tspan>
            </text>
            <g id="Arrow" transform="translate(119.154771, 207.244255) rotate(-88.000000) translate(-119.154771, -207.244255) translate(88.654771, 196.244255)" stroke-linecap="round" stroke-width="4">
                <path d="M0.79703023,0.342703557 C16.0986131,9.51368156 32.1652668,14.2692682 59.7970302,14.3427036" id="Path-2" stroke="#34464C"></path>
                <path d="M50.2758966,5.84702776 C56.9425633,10.2155966 60.2758966,12.8225157 60.2758966,13.667785 C60.2758966,14.5130543 56.9425633,17.2394686 50.2758966,21.8470278" id="Path-3" stroke="#2B3D64"></path>
            </g>
        </g>
        <g id="Blue-group" transform="translate(-83.000000, 25.000000)">
            <path d="M399.250163,140.329548 C397.841272,113.023888 380.860659,84.6563419 355.434747,73.0854147 C308.84149,51.8815661 239.629272,66.7219234 234.391527,128.928968 C231.768993,160.075979 242.5799,180.474502 259.065261,197.533683 C280.91212,220.140984 321.912071,226.843817 358.437886,212.056406 C377.782267,204.224868 397.513362,170.674012 399.250163,151.628679 L399.250163,140.329548 Z" id="Blue" stroke="url(#linearGradient-5)" stroke-width="2" fill-opacity="0.7" fill="#555CCE"></path>
            <g id="noun_like_576529" filter="url(#filter-6)" transform="translate(252.000000, 82.000000)" fill="#FFFFFF">
                <g id="Group" transform="translate(12.833333, 0.000000)">
                    <path d="M5.19392708,21 L1.74701042,21 C0.791765625,21 0.014546875,20.2636875 0.014546875,19.3580625 L0.014546875,9.5169375 C0.014546875,8.61196875 0.791765625,7.875 1.74701042,7.875 L5.19392708,7.875 C6.14917188,7.875 6.92708333,8.61196875 6.92708333,9.5169375 L6.92708333,19.3580625 C6.92708333,20.2636875 6.14917188,21 5.19392708,21 Z M1.74701042,9.1875 C1.55582292,9.1875 1.39996354,9.33515625 1.39996354,9.5169375 L1.39996354,19.3580625 C1.39996354,19.5391875 1.55582292,19.6875 1.74701042,19.6875 L5.19392708,19.6875 C5.38580729,19.6875 5.54166667,19.5391875 5.54166667,19.3580625 L5.54166667,9.5169375 C5.54166667,9.33515625 5.38580729,9.1875 5.19392708,9.1875 L1.74701042,9.1875 Z" id="Shape" fill-rule="nonzero"></path>
                    <path d="M17.8905781,21 L9.49495312,21 C9.06755208,21 8.64015104,20.9041875 8.25708333,20.7230625 L5.92404167,19.6179375 C5.58184375,19.4558437 5.44330208,19.0614375 5.61440104,18.73725 C5.7855,18.4130625 6.201125,18.2818125 6.54401563,18.4439062 L8.87705729,19.5490312 C9.06824479,19.6395937 9.28159896,19.6875 9.49495312,19.6875 L17.8905781,19.6875 C18.1434167,19.6875 18.3789375,19.5582187 18.5050104,19.3495312 L19.2870781,18.0527812 C20.2644896,16.4325 20.78125,14.5884375 20.78125,12.7220625 L20.78125,10.5013125 C20.78125,9.7768125 20.1591979,9.1875 19.3944479,9.1875 L14.1804323,9.1875 C13.7211667,9.1875 13.2930729,8.97225 13.0353854,8.61196875 C12.7783906,8.2516875 12.7264375,7.7949375 12.8968437,7.39134375 C13.5320573,5.88721875 13.8541667,4.302375 13.8541667,2.68078125 L13.8541667,1.9201875 C13.8541667,1.5855 13.5666927,1.3125 13.2127187,1.3125 L12.7818542,1.3125 C12.497151,1.3125 12.2436198,1.493625 12.1653437,1.75284375 L11.8938021,2.6525625 C11.3119271,4.57996875 10.3469844,6.35053125 9.02529687,7.91634375 C8.34367187,8.7241875 7.32677604,9.1875 6.234375,9.1875 L4.15625,9.1875 C3.773875,9.1875 3.46354167,8.8935 3.46354167,8.53125 C3.46354167,8.169 3.773875,7.875 4.15625,7.875 L6.234375,7.875 C6.90283854,7.875 7.52627604,7.59084375 7.94397917,7.09603125 C9.14998437,5.66671875 10.0311094,4.050375 10.561724,2.291625 L10.8332656,1.39190625 C11.0805625,0.57290625 11.882026,0 12.7818542,0 L13.2127187,0 C14.33075,0 15.2395833,0.861 15.2395833,1.9201875 L15.2395833,2.68078125 C15.2395833,4.470375 14.8835312,6.21928125 14.1832031,7.8789375 L19.3944479,7.875 C20.9232552,7.875 22.1666667,9.05296875 22.1666667,10.5013125 L22.1666667,12.7220625 C22.1666667,14.8168125 21.5868698,16.8859687 20.4896198,18.7044375 L19.7075521,20.0011875 C19.3355677,20.6174062 18.6393958,21 17.8905781,21 Z" id="Path"></path>
                    <ellipse id="Oval" cx="3.46354167" cy="17.71875" rx="1" ry="1"></ellipse>
                </g>
            </g>
            <text id="Coisas-que-quero-faz" font-family="Helvetica-Bold, Helvetica" font-size="23" font-weight="bold" fill="#34464C">
                <tspan x="127" y="23">Coisas que </tspan>
                <tspan x="127" y="51">quero fazer</tspan>
            </text>
            <g id="Arrow" transform="translate(182.319550, 102.076719) rotate(13.000000) translate(-182.319550, -102.076719) translate(140.319550, 72.076719)" stroke-linecap="round" stroke-width="4">
                <path d="M0.531806108,0.11020888 C5.1760728,46.0724344 43.7126101,47.8925211 81.7498698,48.1444791" id="Path-2" stroke="#34464C"></path>
                <path d="M71.1732932,37.1034345 C79.1992082,43.2708122 83.2121657,46.9511604 83.2121657,48.1444791 C83.2121657,49.3377978 79.1992082,53.1868447 71.1732932,59.6916198" id="Path-3" stroke="#2B3D64"></path>
            </g>
        </g>
    </g>
</svg>