<?xml version="1.0" encoding="UTF-8"?>
<svg width="578px" height="220px" viewBox="0 0 578 220" version="1.1" xmlns="http://www.w3.org/2000/svg" xmlns:xlink="http://www.w3.org/1999/xlink">
    <!-- Generator: Sketch 52.2 (67145) - http://www.bohemiancoding.com/sketch -->
    <title>Diagrama Tarefas - 3</title>
    <desc>Created with Sketch.</desc>
    <defs>
        <linearGradient x1="100%" y1="50%" x2="0%" y2="50%" id="linearGradient-1">
            <stop stop-color="#810808" offset="0%"></stop>
            <stop stop-color="#CE5555" offset="100%"></stop>
        </linearGradient>
        <linearGradient x1="50%" y1="97.6201228%" x2="50%" y2="0%" id="linearGradient-2">
            <stop stop-color="#319924" offset="0%"></stop>
            <stop stop-color="#64C857" offset="100%"></stop>
        </linearGradient>
        <linearGradient x1="100%" y1="50%" x2="0%" y2="50%" id="linearGradient-3">
            <stop stop-color="#313AC5" offset="0%"></stop>
            <stop stop-color="#785BD2" offset="100%"></stop>
        </linearGradient>
        <filter x="-41.4%" y="-6.7%" width="182.8%" height="113.7%" filterUnits="objectBoundingBox" id="filter-4">
            <feOffset dx="0" dy="2" in="SourceAlpha" result="shadowOffsetOuter1"></feOffset>
            <feGaussianBlur stdDeviation="2" in="shadowOffsetOuter1" result="shadowBlurOuter1"></feGaussianBlur>
            <feColorMatrix values="0 0 0 0 0   0 0 0 0 0   0 0 0 0 0  0 0 0 0.5 0" type="matrix" in="shadowBlurOuter1" result="shadowMatrixOuter1"></feColorMatrix>
            <feMerge>
                <feMergeNode in="shadowMatrixOuter1"></feMergeNode>
                <feMergeNode in="SourceGraphic"></feMergeNode>
            </feMerge>
        </filter>
        <filter x="-38.7%" y="-12.1%" width="177.4%" height="124.2%" filterUnits="objectBoundingBox" id="filter-5">
            <feOffset dx="0" dy="2" in="SourceAlpha" result="shadowOffsetOuter1"></feOffset>
            <feGaussianBlur stdDeviation="2" in="shadowOffsetOuter1" result="shadowBlurOuter1"></feGaussianBlur>
            <feColorMatrix values="0 0 0 0 0   0 0 0 0 0   0 0 0 0 0  0 0 0 0.5 0" type="matrix" in="shadowBlurOuter1" result="shadowMatrixOuter1"></feColorMatrix>
            <feMerge>
                <feMergeNode in="shadowMatrixOuter1"></feMergeNode>
                <feMergeNode in="SourceGraphic"></feMergeNode>
            </feMerge>
        </filter>
        <filter x="-21.1%" y="-27.6%" width="142.1%" height="155.3%" filterUnits="objectBoundingBox" id="filter-6">
            <feOffset dx="0" dy="2" in="SourceAlpha" result="shadowOffsetOuter1"></feOffset>
            <feGaussianBlur stdDeviation="2" in="shadowOffsetOuter1" result="shadowBlurOuter1"></feGaussianBlur>
            <feColorMatrix values="0 0 0 0 0   0 0 0 0 0   0 0 0 0 0  0 0 0 0.5 0" type="matrix" in="shadowBlurOuter1" result="shadowMatrixOuter1"></feColorMatrix>
            <feMerge>
                <feMergeNode in="shadowMatrixOuter1"></feMergeNode>
                <feMergeNode in="SourceGraphic"></feMergeNode>
            </feMerge>
        </filter>
    </defs>
    <g id="Diagrama-3" stroke="none" stroke-width="1" fill="none" fill-rule="evenodd">
        <g id="Red-group" transform="translate(217.000000, -6.000000)" fill="#CE5555" fill-opacity="0.7" stroke="url(#linearGradient-1)" stroke-width="2">
            <path d="M165.250163,105.329548 C163.841272,78.0238878 146.860659,49.6563419 121.434747,38.0854147 C74.8414899,16.8815661 5.62927159,31.7219234 0.39152668,93.928968 C-2.23100743,125.075979 8.57989976,145.474502 25.0652607,162.533683 C46.9121203,185.140984 87.9120713,191.843817 124.437886,177.056406 C143.782267,169.224868 163.513362,135.674012 165.250163,116.628679 L165.250163,105.329548 Z" id="Red" transform="translate(82.625082, 106.966035) scale(-1, 1) translate(-82.625082, -106.966035) "></path>
        </g>
        <g id="Green-group" transform="translate(210.000000, 38.000000)" fill="#55BC48" fill-opacity="0.7" stroke="url(#linearGradient-2)" stroke-width="2">
            <path d="M165.250163,76.3295482 C163.841272,49.0238878 146.860659,20.6563419 121.434747,9.08541473 C74.8414899,-12.1184339 5.62927159,2.7219234 0.39152668,64.928968 C-2.23100743,96.0759786 8.57989976,116.474502 25.0652607,133.533683 C46.9121203,156.140984 87.9120713,162.843817 124.437886,148.056406 C143.782267,140.224868 163.513362,106.674012 165.250163,87.6286789 L165.250163,76.3295482 Z" id="Green" transform="translate(82.625082, 77.966035) scale(-1, -1) translate(-82.625082, -77.966035) "></path>
        </g>
        <g id="Blue-group" transform="translate(-8.000000, -7.000000)" fill="#555CCE" fill-opacity="0.7" stroke="url(#linearGradient-3)" stroke-width="2">
            <path d="M375.250163,107.329548 C373.841272,80.0238878 356.860659,51.6563419 331.434747,40.0854147 C284.84149,18.8815661 215.629272,33.7219234 210.391527,95.928968 C207.768993,127.075979 218.5799,147.474502 235.065261,164.533683 C256.91212,187.140984 297.912071,193.843817 334.437886,179.056406 C353.782267,171.224868 373.513362,137.674012 375.250163,118.628679 L375.250163,107.329548 Z" id="Blue"></path>
        </g>
        <g id="noun_Heart_1984775" filter="url(#filter-4)" transform="translate(279.000000, -12.000000)" fill="#FFFFFF">
            <path d="M14.482509,156.95491 C19.2750302,149.804469 29,152.118863 29,159.545649 C29,166.903349 21.9686369,171.221248 14.482509,178.578947 C7.03136309,171.221248 0,166.903349 0,159.545649 C0,152.118863 9.72496984,149.804469 14.482509,156.95491 Z" id="Path"></path>
        </g>
        <g id="noun_study_643060" filter="url(#filter-5)" transform="translate(315.000000, 62.000000)" fill="#FFFFFF">
            <g id="Group">
                <path d="M9.04208,24.2799585 L9.04208,13.3909777 L15.91292,9.70001543 C16.29081,9.4973117 16.43434,9.02297872 16.23346,8.64075532 C16.03227,8.25884521 15.56324,8.113475 15.18504,8.31680532 L8.01908,12.1662963 C7.75124,12.3104133 7.60337,12.4144282 7.52122,12.7079883 C7.4679,12.8793622 7.49208,13.1390862 7.49208,13.2910356 L7.49208,24.2796452 C6.56859,24.6048484 5.90333,25.4911681 5.90333,26.5338234 L5.90333,29.4318287 L10.63083,29.4318287 L10.63083,26.5338234 C10.63083,25.4914814 9.96526,24.6051617 9.04208,24.2799585 Z" id="Path"></path>
                <path d="M6.25208,14.0326117 L5.425,13.5758234 L5.425,15.6225984 C5.425,16.5837963 5.72105,17.4979995 6.25208,18.3276122 L6.25208,14.0326117 Z" id="Path"></path>
                <path d="M15.49969,19.1406202 L14.71291,18.7057628 L10.28208,16.0728074 L10.28208,21.4518186 C11.80418,22.075908 13.58978,22.4355739 15.5,22.4355739 C21.06419,22.4355739 25.575,19.3859324 25.575,15.6229117 L25.575,13.5758234 L16.28647,18.7057628 L15.49969,19.1406202 Z" id="Path"></path>
                <path d="M15.5,0.174506915 L0.09083,8.77296702 L0.15562,8.80899628 L6.35593,12.2336553 C6.60548,11.4604362 7.16255,11.155284 7.4369,11.0077207 L14.60286,7.15822979 C14.89333,7.00220745 15.22007,6.91981011 15.54805,6.91981011 C16.29422,6.91981011 16.97653,7.3333633 17.32838,8.00131436 C17.84918,8.99321543 17.47501,10.2282356 16.49479,10.7548894 L10.28177,14.0921383 L15.49969,17.284017 L30.86298,8.79865745 L30.90917,8.77296702 L15.5,0.174506915 Z" id="Path"></path>
                <path d="M15.52046,8.17644787 C15.53906,8.17582128 15.55766,8.17644787 15.57626,8.17676117 C15.56665,8.17644787 15.55735,8.1730016 15.54774,8.1730016 C15.53875,8.1730016 15.52976,8.17613457 15.52046,8.17644787 Z" id="Path"></path>
            </g>
        </g>
        <g id="noun_like_576529" filter="url(#filter-6)" transform="translate(223.000000, 63.000000)" fill="#FFFFFF">
            <g id="Group" transform="translate(14.928571, 0.000000)">
                <path d="M6.04191518,24.4285714 L2.03223661,24.4285714 C0.921033482,24.4285714 0.016921875,23.5720446 0.016921875,22.5185625 L0.016921875,11.0707232 C0.016921875,10.0180045 0.921033482,9.16071429 2.03223661,9.16071429 L6.04191518,9.16071429 C7.1531183,9.16071429 8.05803571,10.0180045 8.05803571,11.0707232 L8.05803571,22.5185625 C8.05803571,23.5720446 7.1531183,24.4285714 6.04191518,24.4285714 Z M2.03223661,10.6875 C1.80983482,10.6875 1.62852902,10.8592634 1.62852902,11.0707232 L1.62852902,22.5185625 C1.62852902,22.7292589 1.80983482,22.9017857 2.03223661,22.9017857 L6.04191518,22.9017857 C6.26512277,22.9017857 6.44642857,22.7292589 6.44642857,22.5185625 L6.44642857,11.0707232 C6.44642857,10.8592634 6.26512277,10.6875 6.04191518,10.6875 L2.03223661,10.6875 Z" id="Shape" fill-rule="nonzero"></path>
                <path d="M20.8114888,24.4285714 L11.0451496,24.4285714 C10.5479687,24.4285714 10.0507879,24.3171161 9.60517857,24.1064196 L6.89123214,22.8208661 C6.49316518,22.632308 6.33200446,22.1735089 6.53103795,21.7963929 C6.73007143,21.4192768 7.21355357,21.2665982 7.61242634,21.4551562 L10.3263728,22.7407098 C10.5487746,22.846058 10.7969621,22.9017857 11.0451496,22.9017857 L20.8114888,22.9017857 C21.1056071,22.9017857 21.3795804,22.7513973 21.5262366,22.5086384 L22.4359888,21.0001741 C23.5729777,19.1153571 24.1741071,16.9702232 24.1741071,14.7991339 L24.1741071,12.2158125 C24.1741071,11.3730268 23.4504955,10.6875 22.5608884,10.6875 L16.4956049,10.6875 C15.9613571,10.6875 15.4633705,10.4371071 15.1636116,10.0180045 C14.8646585,9.59890179 14.8042232,9.06758036 15.0024509,8.59809375 C15.7413728,6.84839732 16.1160714,5.00480357 16.1160714,3.11845982 L16.1160714,2.2336875 C16.1160714,1.84435714 15.7816629,1.52678571 15.3698973,1.52678571 L14.8686875,1.52678571 C14.5375022,1.52678571 14.2425781,1.73748214 14.1515223,2.03902232 L13.8356473,3.08563393 C13.1587723,5.32771875 12.0362879,7.38735268 10.4988147,9.20880804 C9.70590402,10.1485446 8.52298437,10.6875 7.25223214,10.6875 L4.83482143,10.6875 C4.39001786,10.6875 4.02901786,10.3455 4.02901786,9.92410714 C4.02901786,9.50271429 4.39001786,9.16071429 4.83482143,9.16071429 L7.25223214,9.16071429 C8.02983259,9.16071429 8.7550558,8.83016518 9.24095536,8.25456696 C10.6438594,6.59189732 11.6688415,4.71166071 12.2860871,2.66576786 L12.6019621,1.61915625 C12.8896339,0.666441964 13.8219487,0 14.8686875,0 L15.3698973,0 C16.6704643,0 17.7276786,1.00157143 17.7276786,2.2336875 L17.7276786,3.11845982 C17.7276786,5.20023214 17.3134955,7.23467411 16.4988281,9.16529464 L22.5608884,9.16071429 C24.3392969,9.16071429 25.7857143,10.5310045 25.7857143,12.2158125 L25.7857143,14.7991339 C25.7857143,17.2358839 25.1112567,19.6428616 23.8348638,21.7582232 L22.9251116,23.2666875 C22.4923951,23.9835134 21.6825625,24.4285714 20.8114888,24.4285714 Z" id="Path"></path>
                <ellipse id="Oval" cx="4.02901786" cy="20.6116071" rx="1" ry="1"></ellipse>
            </g>
        </g>
    </g>
</svg>